<svg xmlns="http://www.w3.org/2000/svg" width="26" height="26" viewBox="0 0 26 26">
  <g id="Group_34" data-name="Group 34" transform="translate(-983 -9254)">
    <circle id="Ellipse_8" data-name="Ellipse 8" cx="13" cy="13" r="13" transform="translate(983 9254)" fill="#f5f5f5"/>
    <path id="instagram-brands" d="M6.437,35a3.338,3.338,0,1,0,3.338,3.338A3.333,3.333,0,0,0,6.437,35Zm0,5.508a2.17,2.17,0,1,1,2.17-2.17,2.174,2.174,0,0,1-2.17,2.17ZM10.69,34.86a.779.779,0,1,1-.779-.779A.777.777,0,0,1,10.69,34.86Zm2.211.79a3.853,3.853,0,0,0-1.052-2.728,3.878,3.878,0,0,0-2.728-1.052c-1.075-.061-4.3-.061-5.371,0a3.873,3.873,0,0,0-2.728,1.049A3.865,3.865,0,0,0-.029,35.647c-.061,1.075-.061,4.3,0,5.371a3.853,3.853,0,0,0,1.052,2.728A3.883,3.883,0,0,0,3.75,44.8c1.075.061,4.3.061,5.371,0a3.853,3.853,0,0,0,2.728-1.052A3.878,3.878,0,0,0,12.9,41.019C12.962,39.944,12.962,36.725,12.9,35.65Zm-1.389,6.522a2.2,2.2,0,0,1-1.238,1.238,14.348,14.348,0,0,1-3.838.261A14.46,14.46,0,0,1,2.6,43.41a2.2,2.2,0,0,1-1.238-1.238A14.348,14.348,0,0,1,1.1,38.334,14.46,14.46,0,0,1,1.362,34.5,2.2,2.2,0,0,1,2.6,33.259,14.348,14.348,0,0,1,6.437,33a14.46,14.46,0,0,1,3.838.261A2.2,2.2,0,0,1,11.513,34.5a14.348,14.348,0,0,1,.261,3.838A14.34,14.34,0,0,1,11.513,42.172Z" transform="translate(989.075 9229.175)" fill="#1a1a1a"/>
  </g>
</svg>
