<svg xmlns="http://www.w3.org/2000/svg" width="26" height="26" viewBox="0 0 26 26">
  <g id="Group_33" data-name="Group 33" transform="translate(-983 -9154)">
    <circle id="Ellipse_6" data-name="Ellipse 6" cx="13" cy="13" r="13" transform="translate(983 9154)" fill="#f5f5f5"/>
    <path id="linkedin-brands" d="M11.817,32H.906A.913.913,0,0,0,0,32.917V43.808a.913.913,0,0,0,.906.917h10.91a.915.915,0,0,0,.909-.917V32.917A.915.915,0,0,0,11.817,32ZM3.846,42.908H1.96V36.835H3.849v6.073Zm-.943-6.9A1.094,1.094,0,1,1,4,34.912,1.094,1.094,0,0,1,2.9,36.005Zm8.013,6.9H9.03V39.953c0-.7-.014-1.611-.98-1.611-.983,0-1.133.767-1.133,1.559v3.005H5.031V36.835H6.84v.829h.026a1.987,1.987,0,0,1,1.787-.98c1.909,0,2.264,1.258,2.264,2.895Z" transform="translate(990 9129)" fill="#1a1a1a"/>
  </g>
</svg>
