<svg xmlns="http://www.w3.org/2000/svg" width="26" height="26" viewBox="0 0 26 26">
  <g id="Group_32" data-name="Group 32" transform="translate(-983 -9105)">
    <circle id="Ellipse_4" data-name="Ellipse 4" cx="13" cy="13" r="13" transform="translate(983 9105)" fill="#fff"/>
    <circle id="Ellipse_5" data-name="Ellipse 5" cx="13" cy="13" r="13" transform="translate(983 9105)" fill="#f5f5f5"/>
    <path id="twitter-brands" d="M13.922,5.6c.01.138.01.276.01.414a8.988,8.988,0,0,1-9.049,9.049A8.978,8.978,0,0,1,0,13.636a6.579,6.579,0,0,0,.768.039,6.373,6.373,0,0,0,3.949-1.359,3.186,3.186,0,0,1-2.973-2.205,4.009,4.009,0,0,0,.6.049,3.362,3.362,0,0,0,.837-.108A3.173,3.173,0,0,1,.632,6.958V6.919a3.2,3.2,0,0,0,1.437.4A3.185,3.185,0,0,1,1.085,3.07,9.034,9.034,0,0,0,7.643,6.4a3.59,3.59,0,0,1-.079-.729,3.182,3.182,0,0,1,5.5-2.175,6.259,6.259,0,0,0,2.018-.768,3.172,3.172,0,0,1-1.4,1.753,6.38,6.38,0,0,0,1.831-.492A6.83,6.83,0,0,1,13.923,5.63Z" transform="translate(988.24 9109.224)" fill="#1a1a1a"/>
  </g>
</svg>
