<svg xmlns="http://www.w3.org/2000/svg" width="26" height="26" viewBox="0 0 26 26">
  <g id="Group_35" data-name="Group 35" transform="translate(-983 -9204)">
    <circle id="Ellipse_7" data-name="Ellipse 7" cx="13" cy="13" r="13" transform="translate(983 9204)" fill="#f5f5f5"/>
    <path id="youtube-brands" d="M28.1,65.479a1.689,1.689,0,0,0-1.188-1.2A39.884,39.884,0,0,0,21.66,64a39.892,39.892,0,0,0-5.251.283,1.689,1.689,0,0,0-1.188,1.2,19.017,19.017,0,0,0,0,6.512,1.664,1.664,0,0,0,1.188,1.177,39.892,39.892,0,0,0,5.251.283,39.907,39.907,0,0,0,5.252-.283A1.663,1.663,0,0,0,28.1,71.991a19.017,19.017,0,0,0,0-6.512Zm-7.814,5.254v-4l3.512,2-3.512,2Z" transform="translate(974.06 9148)" fill="#1a1a1a"/>
  </g>
</svg>
